<?xml version="1.0" standalone="no"?><!DOCTYPE svg PUBLIC "-//W3C//DTD SVG 1.1//EN" "http://www.w3.org/Graphics/SVG/1.1/DTD/svg11.dtd"><svg t="1680339973550" class="icon" viewBox="0 0 1024 1024" version="1.1" xmlns="http://www.w3.org/2000/svg" p-id="3136" xmlns:xlink="http://www.w3.org/1999/xlink" width="200" height="200"><path d="M804.571429 438.857143 804.571429 146.133065C804.571429 65.425993 739.15136 0 658.424576 0L365.575424 0C284.860745 0 219.428571 65.701339 219.428571 146.133065L219.428571 438.857143 146.285714 438.857143C105.890048 438.857143 73.142857 471.570798 73.142857 511.782766L73.142857 951.074377C73.142857 991.350089 105.948379 1024 146.466633 1024L877.533367 1024C918.028983 1024 950.857143 991.286345 950.857143 951.074377L950.857143 511.782766C950.857143 471.507054 918.391589 438.857143 877.714286 438.857143L804.571429 438.857143 804.571429 438.857143ZM585.142857 877.714286 438.857143 877.714286 470.674286 718.628571C451.474286 705.462857 438.857143 683.337143 438.857143 658.285714 438.857143 617.837714 471.588571 585.142857 512 585.142857 552.448 585.142857 585.142857 617.837714 585.142857 658.285714 585.142857 683.337143 572.525714 705.462857 553.325714 718.628571L585.142857 877.714286 585.142857 877.714286 585.142857 877.714286ZM292.571429 438.857143 292.571429 146.271634C292.571429 105.883721 325.557029 73.142857 366.02624 73.142857L657.97376 73.142857C698.541714 73.142857 731.428571 105.59755 731.428571 146.271634L731.428571 438.857143 292.571429 438.857143 292.571429 438.857143Z" fill="#1571E5" p-id="3137"></path></svg>